<svg width="19" height="20" viewBox="0 0 19 20" fill="none" xmlns="http://www.w3.org/2000/svg">
<path d="M10.4557 8.62304C10.9616 9.12894 10.9616 9.94918 10.4557 10.4551L2.21151 18.6993C1.7056 19.2052 0.885368 19.2052 0.379462 18.6993C-0.126445 18.1934 -0.126445 17.3732 0.379462 16.8673L7.70766 9.53906L0.379461 2.21087C-0.126446 1.70496 -0.126447 0.884723 0.37946 0.378816C0.885367 -0.12709 1.7056 -0.12709 2.21151 0.378816L10.4557 8.62304ZM8.68457 9.53906L8.68457 8.24361L9.53971 8.24361L9.53971 9.53906L9.53971 10.8345L8.68457 10.8345L8.68457 9.53906Z" fill="white"/>
<path d="M18.151 8.62304C18.657 9.12894 18.657 9.94918 18.151 10.4551L9.90682 18.6993C9.40092 19.2052 8.58068 19.2052 8.07477 18.6993C7.56887 18.1934 7.56887 17.3732 8.07477 16.8673L15.403 9.53906L8.07477 2.21087C7.56887 1.70496 7.56887 0.884723 8.07477 0.378816C8.58068 -0.12709 9.40092 -0.12709 9.90682 0.378816L18.151 8.62304ZM16.3799 9.53906L16.3799 8.24361L17.235 8.24361L17.235 9.53906L17.235 10.8345L16.3799 10.8345L16.3799 9.53906Z" fill="white"/>
</svg>
