<svg width="219" height="219" viewBox="0 0 219 219" fill="none" xmlns="http://www.w3.org/2000/svg">
<g filter="url(#filter0_i_951_5366)">
<path fill-rule="evenodd" clip-rule="evenodd" d="M12.608 0.000396729L0.0100098 0.0103989L0 12.6084V37.8184H25.22V50.4124H0V106.037L9.9962 116.022L0 126.012V218.433L25.279 193.161L37.871 180.563L37.8472 126.022H37.8085L27.8323 116.046L37.8373 106.037L37.8173 63.0182H50.4063V113.419L81.9203 81.9202L113.419 50.4012H63.0193V37.8172L106.037 37.8322L116.051 27.8322L126.022 37.8072V37.8422L180.564 37.871L218.435 0H126.017L116.022 9.995L106.036 0H50.4165V25.22H37.8175V0L12.608 0.000396729ZM12.608 12.6084H25.21V25.2204C29.42 29.4104 33.6188 33.6192 37.818 37.8184H50.412L50.421 50.4204H50.412L37.818 50.4114V37.8174C33.6192 33.6136 29.4105 29.4246 25.21 25.2204C21.0112 25.2204 16.8075 25.2094 12.608 25.2094V12.6084ZM63.019 12.6084H100.811L107.11 18.9072L100.777 25.241L63.0183 25.231L63.019 12.6084ZM131.237 12.6084H188.751L176.091 25.2694L131.296 25.2594L124.944 18.9069L131.237 12.6084ZM84.025 63.0094L73.523 73.5214C74.6318 74.6002 75.7342 75.7139 76.828 76.8264C75.7155 75.7276 74.6068 74.6302 73.523 73.5214L63.011 84.0234L63.021 63.0174L84.026 63.0084L84.025 63.0094ZM12.609 63.0184H25.231L25.241 100.777L18.9072 107.111L12.6084 100.812L12.609 63.0184ZM18.9078 124.938L25.2616 131.291L25.2706 176.09L12.6096 188.751V131.237L18.9078 124.938Z" fill="white"/>
</g>
<defs>
<filter id="filter0_i_951_5366" x="0" y="0" width="218.435" height="222.434" filterUnits="userSpaceOnUse" color-interpolation-filters="sRGB">
<feFlood flood-opacity="0" result="BackgroundImageFix"/>
<feBlend mode="normal" in="SourceGraphic" in2="BackgroundImageFix" result="shape"/>
<feColorMatrix in="SourceAlpha" type="matrix" values="0 0 0 0 0 0 0 0 0 0 0 0 0 0 0 0 0 0 127 0" result="hardAlpha"/>
<feOffset dy="4"/>
<feGaussianBlur stdDeviation="12"/>
<feComposite in2="hardAlpha" operator="arithmetic" k2="-1" k3="1"/>
<feColorMatrix type="matrix" values="0 0 0 0 0 0 0 0 0 0 0 0 0 0 0 0 0 0 0.79 0"/>
<feBlend mode="normal" in2="shape" result="effect1_innerShadow_951_5366"/>
</filter>
</defs>
</svg>
