<svg width="47" height="40" viewBox="0 0 47 40" fill="none" xmlns="http://www.w3.org/2000/svg">
              <g filter="url(#filter0_d_928_2802)">
                <path d="M38.154 6.76803H8.61553C7.94271 6.76803 7.38477 6.34957 7.38477 5.84495C7.38477 5.34034 7.94271 4.92188 8.61553 4.92188H38.154C38.8268 4.92188 39.3848 5.34034 39.3848 5.84495C39.3848 6.34957 38.8268 6.76803 38.154 6.76803Z" fill="#0F0F0F" />
                <path d="M38.4852 18.4633H16.8994C16.4077 18.4633 16 18.0449 16 17.5403C16 17.0356 16.4077 16.6172 16.8994 16.6172H38.4852C38.9769 16.6172 39.3846 17.0356 39.3846 17.5403C39.3846 18.0449 38.9769 18.4633 38.4852 18.4633Z" fill="#0F0F0F" />
                <path d="M38.154 30.1547H8.61553C7.94271 30.1547 7.38477 29.7363 7.38477 29.2317C7.38477 28.7271 7.94271 28.3086 8.61553 28.3086H38.154C38.8268 28.3086 39.3848 28.7271 39.3848 29.2317C39.3848 29.7363 38.8268 30.1547 38.154 30.1547Z" fill="#0F0F0F" />
              </g>
              <defs>
                <filter id="filter0_d_928_2802" x="0.000149727" y="-0.0246398" width="46.7692" height="40.027" filterUnits="userSpaceOnUse" color-interpolation-filters="sRGB">
                  <feFlood flood-opacity="0" result="BackgroundImageFix" />
                  <feColorMatrix in="SourceAlpha" type="matrix" values="0 0 0 0 0 0 0 0 0 0 0 0 0 0 0 0 0 0 127 0" result="hardAlpha" />
                  <feOffset dy="2.46154" />
                  <feGaussianBlur stdDeviation="3.69231" />
                  <feComposite in2="hardAlpha" operator="out" />
                  <feColorMatrix type="matrix" values="0 0 0 0 0 0 0 0 0 0 0 0 0 0 0 0 0 0 0.25 0" />
                  <feBlend mode="normal" in2="BackgroundImageFix" result="effect1_dropShadow_928_2802" />
                  <feBlend mode="normal" in="SourceGraphic" in2="effect1_dropShadow_928_2802" result="shape" />
                </filter>
              </defs>
            </svg>