<svg width="1467" height="623" viewBox="0 0 1467 623" fill="none" xmlns="http://www.w3.org/2000/svg">
<g opacity="0.28" clip-path="url(#clip0_928_2707)">
<path d="M444.09 1162.96H37.8776L-87.6668 776.339L241.016 537.438L569.635 776.339L444.09 1162.96Z" stroke="#F7F7F7" stroke-miterlimit="10"/>
<path opacity="0.2" d="M180.852 1508.63H-492.033L-699.999 868.236L-155.542 472.477L388.818 868.236L180.852 1508.63Z" fill="url(#paint0_linear_928_2707)"/>
<path opacity="0.6" d="M2110.09 445.77H1591.09L1430.69 -48.1753L1850.64 -353.398L2270.49 -48.1753L2110.09 445.77Z" fill="url(#paint1_linear_928_2707)"/>
<path opacity="0.2" d="M781.23 365.798H262.237L101.832 -128.148L521.75 -433.371L941.635 -128.148L781.23 365.798Z" fill="url(#paint2_linear_928_2707)"/>
<path opacity="0.6" d="M578.737 1065.65H59.7776L-100.627 571.7L319.29 266.477L739.143 571.7L578.737 1065.65Z" fill="url(#paint3_linear_928_2707)"/>
<path opacity="0.6" d="M1890.62 933.751H1473L1343.93 536.306L1681.84 290.695L2019.7 536.306L1890.62 933.751Z" fill="url(#paint4_linear_928_2707)"/>
<path opacity="0.6" d="M1345 924.023H922.065L791.369 521.521L1133.56 272.766L1475.69 521.521L1345 924.023Z" fill="url(#paint5_linear_928_2707)"/>
<path opacity="0.2" d="M1602.59 639.676H1083.6L923.198 145.731L1343.11 -159.492L1763 145.731L1602.59 639.676Z" fill="url(#paint6_linear_928_2707)"/>
<path opacity="0.6" d="M1225.41 224.922H1014.3L949.054 24.0114L1119.89 -100.172L1290.66 24.0114L1225.41 224.922Z" fill="url(#paint7_linear_928_2707)"/>
<path opacity="0.2" d="M304.484 73.1832H2.30237L-91.1025 -214.438L153.409 -392.172L397.889 -214.438L304.484 73.1832Z" fill="url(#paint8_linear_928_2707)"/>
<path opacity="0.2" d="M157.363 671.868H-339.566L-493.135 198.96L-91.0695 -93.2969L310.932 198.96L157.363 671.868Z" fill="url(#paint9_linear_928_2707)"/>
<path opacity="0.2" d="M83.7637 309.674L179.731 605.5H490.269L586.238 309.674L335.021 126.854L83.7637 309.674Z" stroke="#F6F6F6" stroke-width="3"/>
<path d="M1726.65 33.8018H1112.89L923.199 -550.323L1419.8 -911.301L1916.34 -550.323L1726.65 33.8018Z" stroke="#F7F7F7" stroke-miterlimit="10"/>
<path d="M1844.39 868.951H1421.39L1290.66 466.384L1632.92 217.629L1975.11 466.384L1844.39 868.951Z" stroke="#F7F7F7" stroke-miterlimit="10"/>
<path d="M882.084 477.439H459.089L328.361 74.9052L670.619 -173.883L1012.81 74.9052L882.084 477.439Z" stroke="#F7F7F7" stroke-width="13" stroke-miterlimit="10"/>
<path d="M110.723 1026.32H-312.272L-443 623.788L-100.742 375L241.451 623.788L110.723 1026.32Z" stroke="#F7F7F7" stroke-width="13" stroke-miterlimit="10"/>
<path d="M1471.71 610H1299.29L1246 445.605L1385.51 344L1525 445.605L1471.71 610Z" stroke="#F7F7F7" stroke-width="13" stroke-miterlimit="10"/>
<path d="M1826.24 1518.88H1182.06L982.973 905.777L1504.2 526.906L2025.36 905.777L1826.24 1518.88Z" stroke="#F7F7F7" stroke-miterlimit="10"/>
</g>
<defs>
<linearGradient id="paint0_linear_928_2707" x1="89.267" y1="1481.34" x2="-292.401" y2="688.6" gradientUnits="userSpaceOnUse">
<stop stop-color="#C4FF00"/>
<stop offset="0.0864" stop-color="#A7E808"/>
<stop offset="0.2539" stop-color="#75C016"/>
<stop offset="0.4194" stop-color="#4B9E22"/>
<stop offset="0.5795" stop-color="#2A852B"/>
<stop offset="0.7327" stop-color="#137232"/>
<stop offset="0.8762" stop-color="#056736"/>
<stop offset="1" stop-color="#006337"/>
</linearGradient>
<linearGradient id="paint1_linear_928_2707" x1="1430.7" y1="46.1771" x2="2270.49" y2="46.1771" gradientUnits="userSpaceOnUse">
<stop stop-color="#C4FF00"/>
<stop offset="0.0864" stop-color="#A7E808"/>
<stop offset="0.2539" stop-color="#75C016"/>
<stop offset="0.4194" stop-color="#4B9E22"/>
<stop offset="0.5795" stop-color="#2A852B"/>
<stop offset="0.7327" stop-color="#137232"/>
<stop offset="0.8762" stop-color="#056736"/>
<stop offset="1" stop-color="#006337"/>
</linearGradient>
<linearGradient id="paint2_linear_928_2707" x1="101.832" y1="-33.802" x2="941.625" y2="-33.802" gradientUnits="userSpaceOnUse">
<stop stop-color="#C4FF00"/>
<stop offset="0.0864" stop-color="#A7E808"/>
<stop offset="0.2539" stop-color="#75C016"/>
<stop offset="0.4194" stop-color="#4B9E22"/>
<stop offset="0.5795" stop-color="#2A852B"/>
<stop offset="0.7327" stop-color="#137232"/>
<stop offset="0.8762" stop-color="#056736"/>
<stop offset="1" stop-color="#006337"/>
</linearGradient>
<linearGradient id="paint3_linear_928_2707" x1="-100.636" y1="666.052" x2="739.156" y2="666.052" gradientUnits="userSpaceOnUse">
<stop stop-color="#C4FF00"/>
<stop offset="0.0864" stop-color="#A7E808"/>
<stop offset="0.2539" stop-color="#75C016"/>
<stop offset="0.4194" stop-color="#4B9E22"/>
<stop offset="0.5795" stop-color="#2A852B"/>
<stop offset="0.7327" stop-color="#137232"/>
<stop offset="0.8762" stop-color="#056736"/>
<stop offset="1" stop-color="#006337"/>
</linearGradient>
<linearGradient id="paint4_linear_928_2707" x1="1343.94" y1="612.237" x2="2019.68" y2="612.237" gradientUnits="userSpaceOnUse">
<stop stop-color="#C4FF00"/>
<stop offset="0.0864" stop-color="#A7E808"/>
<stop offset="0.2539" stop-color="#75C016"/>
<stop offset="0.4194" stop-color="#4B9E22"/>
<stop offset="0.5795" stop-color="#2A852B"/>
<stop offset="0.7327" stop-color="#137232"/>
<stop offset="0.8762" stop-color="#056736"/>
<stop offset="1" stop-color="#006337"/>
</linearGradient>
<linearGradient id="paint5_linear_928_2707" x1="791.353" y1="598.399" x2="1475.7" y2="598.399" gradientUnits="userSpaceOnUse">
<stop stop-color="#C4FF00"/>
<stop offset="0.0864" stop-color="#A7E808"/>
<stop offset="0.2539" stop-color="#75C016"/>
<stop offset="0.4194" stop-color="#4B9E22"/>
<stop offset="0.5795" stop-color="#2A852B"/>
<stop offset="0.7327" stop-color="#137232"/>
<stop offset="0.8762" stop-color="#056736"/>
<stop offset="1" stop-color="#006337"/>
</linearGradient>
<linearGradient id="paint6_linear_928_2707" x1="1531.94" y1="618.625" x2="1237.56" y2="7.18433" gradientUnits="userSpaceOnUse">
<stop stop-color="#C4FF00"/>
<stop offset="0.0864" stop-color="#A7E808"/>
<stop offset="0.2539" stop-color="#75C016"/>
<stop offset="0.4194" stop-color="#4B9E22"/>
<stop offset="0.5795" stop-color="#2A852B"/>
<stop offset="0.7327" stop-color="#137232"/>
<stop offset="0.8762" stop-color="#056736"/>
<stop offset="1" stop-color="#006337"/>
</linearGradient>
<linearGradient id="paint7_linear_928_2707" x1="949.05" y1="62.385" x2="1290.68" y2="62.385" gradientUnits="userSpaceOnUse">
<stop stop-color="#C4FF00"/>
<stop offset="0.0864" stop-color="#A7E808"/>
<stop offset="0.2539" stop-color="#75C016"/>
<stop offset="0.4194" stop-color="#4B9E22"/>
<stop offset="0.5795" stop-color="#2A852B"/>
<stop offset="0.7327" stop-color="#137232"/>
<stop offset="0.8762" stop-color="#056736"/>
<stop offset="1" stop-color="#006337"/>
</linearGradient>
<linearGradient id="paint8_linear_928_2707" x1="-91.1044" y1="-159.502" x2="397.89" y2="-159.502" gradientUnits="userSpaceOnUse">
<stop stop-color="#C4FF00"/>
<stop offset="0.0864" stop-color="#A7E808"/>
<stop offset="0.2539" stop-color="#75C016"/>
<stop offset="0.4194" stop-color="#4B9E22"/>
<stop offset="0.5795" stop-color="#2A852B"/>
<stop offset="0.7327" stop-color="#137232"/>
<stop offset="0.8762" stop-color="#056736"/>
<stop offset="1" stop-color="#006337"/>
</linearGradient>
<linearGradient id="paint9_linear_928_2707" x1="89.7167" y1="651.727" x2="-192.138" y2="66.3012" gradientUnits="userSpaceOnUse">
<stop stop-color="#C4FF00"/>
<stop offset="0.0864" stop-color="#A7E808"/>
<stop offset="0.2539" stop-color="#75C016"/>
<stop offset="0.4194" stop-color="#4B9E22"/>
<stop offset="0.5795" stop-color="#2A852B"/>
<stop offset="0.7327" stop-color="#137232"/>
<stop offset="0.8762" stop-color="#056736"/>
<stop offset="1" stop-color="#006337"/>
</linearGradient>
<clipPath id="clip0_928_2707">
<rect width="1467" height="623" fill="white" transform="matrix(-1 0 0 1 1467 0)"/>
</clipPath>
</defs>
</svg>
