<svg width="402" height="1096" viewBox="0 0 402 1096" fill="none" xmlns="http://www.w3.org/2000/svg">
<g opacity="0.18" clip-path="url(#clip0_1077_3600)">
<path d="M260.002 177.227H208.002V214.781H260.002V177.227Z" fill="#0F0F0F"/>
<path d="M260 252.332H208V289.887H260V252.332Z" fill="#0F0F0F"/>
<path d="M52.0039 214.772L104.004 214.772L104.004 252.326L52.0039 252.326L52.0039 214.772ZM104.004 27.0391V64.5935L208.004 64.5935V102.148L52.0039 102.148L52.0039 27.0391L0.00390625 27.0391L0.00390625 365.029H52.0039L52.0039 289.92H156.004L156.004 177.257L52.0039 177.257L52.0039 139.702L260.004 139.702V27.0391L104.004 27.0391Z" fill="#0F0F0F"/>
<path d="M416.002 -48.043L416.002 139.69L312.002 139.69L312.002 327.462L104.002 327.462L104.002 365.016L364.002 365.016V177.244H468.002L468.002 -48.043L416.002 -48.043Z" fill="#0F0F0F"/>
<path d="M364.002 -48.043L312.002 -48.043V102.175H364.002V-48.043Z" fill="#0F0F0F"/>
</g>
<g opacity="0.18" clip-path="url(#clip1_1077_3600)">
<path d="M52 402.554H104L104 440.109H52L52 402.554ZM312 365V440.109H260V365H208V440.109H156V365H0L0 477.663L364 477.663V365H312Z" fill="#0F0F0F"/>
<path d="M52.0019 702.936H104.002L104.002 740.49H52.0019L52.0019 702.936ZM208.002 515.203V590.312H156.002V515.203H104.002L104.002 590.312H52.0019L52.0019 515.203H0.00195312L0.00195313 853.193H52.0019L52.0019 778.084H156.002L156.002 665.381H52.0019L52.0019 627.827H260.002V552.718L364.002 552.718V515.203L208.002 515.203Z" fill="#0F0F0F"/>
<path d="M416.002 1040.96L416.002 1228.69H312.002L312.002 1416.46H104.002L104.002 1454.02H364.002V1266.24H468.002L468.002 1040.96H416.002Z" fill="#0F0F0F"/>
<path d="M364.002 590.324H312.002V627.879H364.002V590.324Z" fill="#0F0F0F"/>
<path d="M156 815.613H104V853.168H156V815.613Z" fill="#0F0F0F"/>
<path d="M260 853.163H312V890.717H260V853.163ZM208 665.391V702.945H312V740.5H208L208 890.717H104L104 965.826H52L52 890.717H0L0 1003.38H156V928.272H364L364 815.609H260V778.054H364V665.391L208 665.391Z" fill="#0F0F0F"/>
<path d="M416.002 515.203L416.002 965.817H208.002V1040.93H0.00195313L0.00195313 1078.48H260.002L260.002 1003.37H468.002L468.002 515.203H416.002Z" fill="#0F0F0F"/>
<path d="M364.002 1040.96H312.002V1191.17H364.002V1040.96Z" fill="#0F0F0F"/>
</g>
<defs>
<clipPath id="clip0_1077_3600">
<rect width="468" height="1089" fill="white" transform="translate(0 -724)"/>
</clipPath>
<clipPath id="clip1_1077_3600">
<rect width="468" height="1089" fill="white" transform="translate(0 365)"/>
</clipPath>
</defs>
</svg>
