<svg width="685" height="1007" viewBox="0 0 685 1007" fill="none" xmlns="http://www.w3.org/2000/svg">
<g opacity="0.04" clip-path="url(#clip0_928_2877)">
<path d="M278.134 561.638C359.213 494.999 412.506 409.986 432.123 325.991C336.099 315.269 224.75 343.949 126.539 413.335C111.715 423.809 97.6647 434.874 84.418 446.437" stroke="#006337" stroke-width="13" stroke-miterlimit="10" stroke-linecap="round" stroke-linejoin="round"/>
<path d="M94.8894 397.128C115.067 279.809 93.2707 168.09 42.7912 86.8442C-31.9313 146.557 -89.7993 244.575 -109.977 361.893C-130.154 479.212 -108.358 590.931 -57.8784 672.177C16.8441 612.464 74.7122 514.446 94.8894 397.128Z" stroke="#006337" stroke-width="13" stroke-miterlimit="10" stroke-linecap="round" stroke-linejoin="round"/>
<path d="M235.268 351.684C247.87 291.2 247.687 231.909 235.541 178.918C188.621 195.703 142.651 223.808 101.29 261.646" stroke="#006337" stroke-width="13" stroke-miterlimit="10" stroke-linecap="round" stroke-linejoin="round"/>
<path d="M-138.584 224.332C-152.133 211.366 -166.45 199.9 -181.322 190.089C-216.939 261.106 -226.53 355.165 -200.978 450.686C-175.426 546.206 -120.155 622.914 -53.8356 666.662" stroke="#006337" stroke-width="13" stroke-miterlimit="10" stroke-linecap="round" stroke-linejoin="round"/>
<path d="M337.272 897.866C344.966 914.969 350.99 932.293 355.269 949.589C276.433 959.433 184.574 937.049 103.078 881.052C21.5836 825.056 -32.2512 747.333 -51.3286 670.209" stroke="#006337" stroke-width="13" stroke-miterlimit="10" stroke-linecap="round" stroke-linejoin="round"/>
<path d="M252.405 620.078C369.723 640.255 467.741 698.123 527.454 772.845C446.208 823.325 334.489 845.121 217.17 824.944C99.8519 804.766 1.83377 746.898 -57.8789 672.176C23.3669 621.696 135.086 599.9 252.405 620.078Z" stroke="#006337" stroke-width="13" stroke-miterlimit="10" stroke-linecap="round" stroke-linejoin="round"/>
<path d="M342.137 502.948C403.355 511.277 459.179 531.258 505.067 560.41C473.571 599.027 431.723 632.966 382.24 659.309" stroke="#006337" stroke-width="13" stroke-miterlimit="10" stroke-linecap="round" stroke-linejoin="round"/>
</g>
<defs>
<clipPath id="clip0_928_2877">
<rect width="958" height="958" fill="white" transform="translate(634.273) rotate(87)"/>
</clipPath>
</defs>
</svg>
