<svg width="468" height="2178" viewBox="0 0 468 2178" fill="none" xmlns="http://www.w3.org/2000/svg">
<g opacity="0.05" clip-path="url(#clip0_928_2890)">
<path d="M260.002 901.227H208.002V938.781H260.002V901.227Z" fill="#0F0F0F"/>
<path d="M52 37.5545L104 37.5545L104 75.1089H52L52 37.5545ZM312 0V75.1089L260 75.1089V0L208 0V75.1089H156V0L0 0L0 112.663L364 112.663V0L312 0Z" fill="#0F0F0F"/>
<path d="M260 976.332H208V1013.89H260V976.332Z" fill="#0F0F0F"/>
<path d="M52.0039 938.772H104.004L104.004 976.326H52.0039L52.0039 938.772ZM104.004 751.039V788.594H208.004V826.148H52.0039L52.0039 751.039H0.00390625L0.00390625 1089.03H52.0039L52.0039 1013.92H156.004L156.004 901.257H52.0039L52.0039 863.702H260.004V751.039H104.004Z" fill="#0F0F0F"/>
<path d="M468.002 938.797H416.002V1089.01H468.002V938.797Z" fill="#0F0F0F"/>
<path d="M468.002 0L416.002 0V112.663L468.002 112.663V0Z" fill="#0F0F0F"/>
<path d="M52.0019 337.936H104.002L104.002 375.49H52.0019L52.0019 337.936ZM208.002 150.203V225.312H156.002V150.203H104.002L104.002 225.312H52.0019L52.0019 150.203H0.00195312L0.00195313 488.193H52.0019L52.0019 413.084H156.002L156.002 300.381H52.0019L52.0019 262.827L260.002 262.827V187.718H364.002V150.203L208.002 150.203Z" fill="#0F0F0F"/>
<path d="M416.002 675.957L416.002 863.69H312.002L312.002 1051.46H104.002L104.002 1089.02H364.002V901.244H468.002L468.002 675.957L416.002 675.957Z" fill="#0F0F0F"/>
<path d="M364.002 225.324H312.002V262.879H364.002V225.324Z" fill="#0F0F0F"/>
<path d="M156 450.613H104V488.168H156V450.613Z" fill="#0F0F0F"/>
<path d="M260 488.163H312V525.717H260V488.163ZM208 300.391V337.945H312V375.5L208 375.5L208 525.717H104L104 600.826H52L52 525.717H0L0 638.381H156V563.272H364L364 450.609H260V413.054H364V300.391H208Z" fill="#0F0F0F"/>
<path d="M416.002 150.203L416.002 600.817H208.002V675.926H0.00195313L0.00195313 713.48H260.002L260.002 638.371H468.002L468.002 150.203L416.002 150.203Z" fill="#0F0F0F"/>
<path d="M364.002 675.957H312.002V826.175H364.002V675.957Z" fill="#0F0F0F"/>
</g>
<g opacity="0.05" clip-path="url(#clip1_928_2890)">
<path d="M260.002 1990.23H208.002V2027.78H260.002V1990.23Z" fill="#0F0F0F"/>
<path d="M52 1126.55H104L104 1164.11H52L52 1126.55ZM312 1089V1164.11H260V1089H208V1164.11H156V1089H0L0 1201.66H364V1089H312Z" fill="#0F0F0F"/>
<path d="M260 2065.33H208V2102.88H260V2065.33Z" fill="#0F0F0F"/>
<path d="M52.0039 2027.77H104.004L104.004 2065.33H52.0039L52.0039 2027.77ZM104.004 1840.04V1877.59H208.004V1915.15H52.0039L52.0039 1840.04H0.00390625L0.00390625 2178.03H52.0039L52.0039 2102.92H156.004L156.004 1990.26H52.0039L52.0039 1952.7H260.004V1840.04H104.004Z" fill="#0F0F0F"/>
<path d="M468.002 2027.8H416.002V2178.01H468.002V2027.8Z" fill="#0F0F0F"/>
<path d="M468.002 1089H416.002V1201.66H468.002V1089Z" fill="#0F0F0F"/>
<path d="M52.0019 1426.94H104.002L104.002 1464.49H52.0019L52.0019 1426.94ZM208.002 1239.2V1314.31H156.002V1239.2H104.002L104.002 1314.31H52.0019L52.0019 1239.2H0.00195312L0.00195313 1577.19H52.0019L52.0019 1502.08H156.002L156.002 1389.38H52.0019L52.0019 1351.83H260.002V1276.72H364.002V1239.2H208.002Z" fill="#0F0F0F"/>
<path d="M416.002 1764.96L416.002 1952.69H312.002L312.002 2140.46H104.002L104.002 2178.02H364.002V1990.24H468.002L468.002 1764.96H416.002Z" fill="#0F0F0F"/>
<path d="M364.002 1314.32H312.002V1351.88H364.002V1314.32Z" fill="#0F0F0F"/>
<path d="M156 1539.61H104V1577.17H156V1539.61Z" fill="#0F0F0F"/>
<path d="M260 1577.16H312V1614.72H260V1577.16ZM208 1389.39V1426.95H312V1464.5H208L208 1614.72H104L104 1689.83H52L52 1614.72H0L0 1727.38H156V1652.27H364L364 1539.61H260V1502.05H364V1389.39H208Z" fill="#0F0F0F"/>
<path d="M416.002 1239.2L416.002 1689.82H208.002V1764.93H0.00195313L0.00195313 1802.48H260.002L260.002 1727.37H468.002L468.002 1239.2H416.002Z" fill="#0F0F0F"/>
<path d="M364.002 1764.96H312.002V1915.17H364.002V1764.96Z" fill="#0F0F0F"/>
</g>
<defs>
<clipPath id="clip0_928_2890">
<rect width="468" height="1089" fill="white"/>
</clipPath>
<clipPath id="clip1_928_2890">
<rect width="468" height="1089" fill="white" transform="translate(0 1089)"/>
</clipPath>
</defs>
</svg>
